<svg xmlns="http://www.w3.org/2000/svg" width="26" height="28"><path fill="#0081f0" d="M13.691 26.15V12.954l5.085-2.447v3.452a.714.714 0 101.43 0V9.816l4.352-2.092V20.92zM1.431 7.748l10.83 5.206V26.15L1.43 20.944zm11.545 3.97L2.343 6.608l5.078-2.44 10.634 5.111zm0-10.223L23.61 6.6l-3.916 1.882L9.06 3.378zm13.012 5.106a.728.728 0 00-.071-.313.69.69 0 00-.483-.378L13.292.07a.726.726 0 00-.626 0L.406 5.964A.711.711 0 000 6.577v14.816c0 .272.155.52.405.638l12.261 5.892c.006 0 .006 0 .012.006a.213.213 0 01.054.024c.006 0 .012.006.024.006l.053.017c.006 0 .012.006.018.006.018.006.042.006.06.012h.018c.023 0 .053.006.077.006s.054 0 .078-.006h.017a.213.213 0 00.06-.012c.006 0 .012-.006.018-.006l.054-.017c.006 0 .012-.006.023-.006.018-.006.036-.012.054-.024.006 0 .006 0 .012-.006l12.297-5.91a.714.714 0 00.405-.638V6.62c-.012-.006-.012-.012-.012-.018z"/></svg>