<svg xmlns="http://www.w3.org/2000/svg" width="24" height="24" viewBox="0 0 24 24">
  <g fill="none" fill-rule="evenodd">
    <rect width="24" height="24"/>
    <path fill="#FFF" fill-rule="nonzero" d="M5.82372721,19.9949073 C4.30724616,19.9070404 3.09295962,18.6927538 3.00509269,17.1762728 L3,17 L3,7 C3,5.40231912 4.24891996,4.09633912 5.82372721,4.00509269 L6,4 L6.00509269,3.82372721 C6.09295962,2.30724616 7.30724616,1.09295962 8.82372721,1.00509269 L9,1 L15,1 C16.6568542,1 18,2.34314575 18,4 C19.5976809,4 20.9036609,5.24891996 20.9949073,6.82372721 L21,7 L21,17 C21,18.6568542 19.6568542,20 18,20 C18,21.5976809 16.75108,22.9036609 15.1762728,22.9949073 L15,23 L9,23 C7.40231912,23 6.09633912,21.75108 6.00509269,20.1762728 L6,20 L5.82372721,19.9949073 Z M16,20 L8,20 C8,20.5128358 8.38604019,20.9355072 8.88337887,20.9932723 L9,21 L15,21 C15.5128358,21 15.9355072,20.6139598 15.9932723,20.1166211 L16,20 Z M18,6 L6,6 C5.48716416,6 5.06449284,6.38604019 5.00672773,6.88337887 L5,7 L5,17 C5,17.5128358 5.38604019,17.9355072 5.88337887,17.9932723 L6,18 L18,18 C18.5128358,18 18.9355072,17.6139598 18.9932723,17.1166211 L19,17 L19,7 C19,6.48716416 18.6139598,6.06449284 18.1166211,6.00672773 L18,6 Z M8,8 C8.55228475,8 9,8.44771525 9,9 L9,15 C9,15.5522847 8.55228475,16 8,16 C7.44771525,16 7,15.5522847 7,15 L7,9 C7,8.44771525 7.44771525,8 8,8 Z M12,8 C12.5522847,8 13,8.44771525 13,9 L13,15 C13,15.5522847 12.5522847,16 12,16 C11.4477153,16 11,15.5522847 11,15 L11,9 C11,8.44771525 11.4477153,8 12,8 Z M16,8 C16.5522847,8 17,8.44771525 17,9 L17,15 C17,15.5522847 16.5522847,16 16,16 C15.4477153,16 15,15.5522847 15,15 L15,9 C15,8.44771525 15.4477153,8 16,8 Z M15,3 L9,3 C8.48716416,3 8.06449284,3.38604019 8.00672773,3.88337887 L8,4 L16,4 C16,3.52661307 15.6710663,3.13005271 15.2292908,3.02641071 L15.1166211,3.00672773 L15,3 Z"/>
  </g>
</svg>
