<svg xmlns="http://www.w3.org/2000/svg" width="24" height="24" viewBox="0 0 24 24">
  <g fill="none" fill-rule="evenodd">
    <rect width="24" height="24"/>
    <path fill="#FFF" fill-rule="nonzero" d="M7,2 C8.59768088,2 9.90366088,3.24891996 9.99490731,4.82372721 L10,5 L15,5 C17.6887547,5 19.8818181,7.12230671 19.9953805,9.78311038 L20,10 L20,19 C20,20.5976809 18.75108,21.9036609 17.1762728,21.9949073 L17,22 L7,22 C5.40231912,22 4.09633912,20.75108 4.00509269,19.1762728 L4,19 L4,5 L4.00509269,4.82372721 C4.09633912,3.24891996 5.40231912,2 7,2 Z M12.228,7 L6,7 L6,19 C6,19.4733869 6.32893365,19.8699473 6.77070917,19.9735893 L6.88337887,19.9932723 L7,20 L17,20 C17.5128358,20 17.9355072,19.6139598 17.9932723,19.1166211 L18,19 L18,12.568 L12.228,7 Z M12,12 L13.5,13.5 C14.3284271,14.3284271 14.3284271,15.6715729 13.5,16.5 C12.6715729,17.3284271 11.3284271,17.3284271 10.5,16.5 C9.67157288,15.6715729 9.67157288,14.3284271 10.5,13.5 L12,12 Z M15.112,7.003 L17.9920792,9.780319 C17.8837961,8.28413242 16.6782566,7.09211963 15.1762728,7.00509269 L15.112,7.003 Z M7,4 C6.48716416,4 6.06449284,4.38604019 6.00672773,4.88337887 L6,5 L8,5 C8,4.52661307 7.67106635,4.13005271 7.22929083,4.02641071 L7.11662113,4.00672773 L7,4 Z"/>
  </g>
</svg>
