<svg xmlns="http://www.w3.org/2000/svg" width="24" height="24" viewBox="0 0 24 24">
  <g fill="none" fill-rule="evenodd">
    <rect width="24" height="24"/>
    <path fill="#FFF" fill-rule="nonzero" d="M6,2 L6,4 L9,4 C9,3.44771525 9.44771525,3 10,3 L14,3 C14.5522847,3 15,3.44771525 15,4 L18,4 L18,2 L20,2 L20,4 L22,4 L22,19.7969925 C22,20.9239516 21.2291475,21.9105951 20.1587629,21.9942598 L20.010989,22 L3.98901099,22 C2.89237002,22 2.07383745,21.0623548 2.00473375,19.9497274 L2,19.7969925 L2,4 L4,4 L4,2 L6,2 Z M20,10 L4,10 L4,19.7969925 C4,19.9225098 4.02990826,19.979809 4.00859475,19.9954222 L3.98901099,20 L20.010989,20 C19.9659416,20 19.9883419,19.9636204 19.99706,19.864329 L20,19.7969925 L20,10 Z M16,12 C16.5522847,12 17,12.4477153 17,13 L17,14 L18,14 C18.5522847,14 19,14.4477153 19,15 C19,15.5522847 18.5522847,16 18,16 L16.999,16 L17,17 C17,17.5522847 16.5522847,18 16,18 C15.4477153,18 15,17.5522847 15,17 L15,16 L14,16 C13.4477153,16 13,15.5522847 13,15 C13,14.4477153 13.4477153,14 14,14 L15,14 L15,13 C15,12.4477153 15.4477153,12 16,12 Z M10,14 C10.5522847,14 11,14.4477153 11,15 C11,15.5522847 10.5522847,16 10,16 L7,16 C6.44771525,16 6,15.5522847 6,15 C6,14.4477153 6.44771525,14 7,14 L10,14 Z M9,6 L4,6 L4,8 L20,8 L20,6 L15,6 C15,6.55228475 14.5522847,7 14,7 L10,7 C9.44771525,7 9,6.55228475 9,6 Z"/>
  </g>
</svg>
