<svg xmlns="http://www.w3.org/2000/svg" width="32" height="32" viewBox="0 0 32 32">
  <g fill="none" fill-rule="evenodd">
    <path fill="#FF5A00" d="M16.0002112,-1.59872116e-14 C7.1634194,-1.59872116e-14 0,7.1634194 0,16 C0,24.8365806 7.1634194,32 16.0002112,32 C24.8365806,32 32,24.8365806 32,16 C32,7.1634194 24.8365806,-1.59872116e-14 16.0002112,-1.59872116e-14 Z"/>
    <polygon fill="#CC4800" points="11 13 11 24 20.333 24 23 26 23 24 26 24 26 13"/>
    <path fill="#FFF" fill-rule="nonzero" d="M24,8 L24,22 L13.414,22 L9,26.4142136 L9,22 L6,22 L6,8 L24,8 Z M22,10 L8,10 L8,20 L11,20 L11,21.584 L12.5857864,20 L22,20 L22,10 Z M20,16 L20,18 L10,18 L10,16 L20,16 Z M20,12 L20,14 L10,14 L10,12 L20,12 Z"/>
  </g>
</svg>
