<svg width="32" height="32" fill="none" xmlns="http://www.w3.org/2000/svg"><path d="M2 6V5H1v1h1zm28 20v1h1v-1h-1zm-3.126 0l-.968-.25-.322 1.25h1.29v-1zm0-2v-1h-1.29l.322 1.25.968-.25zM28 24v1h1v-1h-1zM4 8V7H3v1h1zm0 16H3v1h1v-1zm1.126 0l.968.25.322-1.25h-1.29v1zm0 2v1h1.29l-.322-1.25-.968.25zM2 26H1v1h1v-1zm22.732-2l.866-.5-.289-.5h-.577v1zm-3.464 0v-1h-.577l-.289.5.866.5zm3.464 2v1h.577l.289-.5-.866-.5zm-3.464 0l-.866.5.289.5h.577v-1zm-2.142-2l.968.25.322-1.25h-1.29v1zm-6.252 0v-1h-1.29l.322 1.25.968-.25zm0 2l-.969-.25-.321 1.25h1.29v-1zm6.252 0v1h1.29l-.322-1.25-.968.25zm-8.394 0v1h.577l.289-.5-.866-.5zm-3.464 0l-.866.5.289.5h.577v-1zm0-2v-1H6.69l-.289.5.866.5zm3.464 0l.866-.5-.289-.5h-.577v1zM3 5H2v2h1V5zm18 0H3v2h18V5zm10 10c0-5.523-4.477-10-10-10v2a8 8 0 018 8h2zm0 10V15h-2v10h2zm0 1v-1h-2v1h2zm-2 1h1v-2h-1v2zm-2.126 0H29v-2h-2.126v2zM26 25c0 .26-.033.512-.095.75l1.937.5c.104-.401.158-.82.158-1.25h-2zm-.095-.75c.062.238.095.49.095.75h2c0-.43-.055-.849-.158-1.25l-1.936.5zM28 23h-1.126v2H28v-2zm-1-8v9h2v-9h-2zm-6-6a6 6 0 016 6h2a8 8 0 00-8-8v2zM4 9h17V7H4v2zm1 15V8H3v16h2zm.126-1H4v2h1.126v-2zM6 25c0-.26.033-.512.094-.75l-1.936-.5C4.055 24.152 4 24.57 4 25h2zm.094.75A3.007 3.007 0 016 25H4c0 .43.055.849.158 1.25l1.936-.5zM3 27h2.126v-2H3v2zm-1 0h1v-2H2v2zm-1-2v1h2v-1H1zM1 7v18h2V7H1zm0-1v1h2V6H1zm23.732 17h-3.464v2h3.464v-2zM26 25a2.99 2.99 0 00-.402-1.5l-1.731 1A.991.991 0 0124 25h2zm-.402 1.5A2.99 2.99 0 0026 25h-2a.991.991 0 01-.133.5l1.731 1zm-4.33.5h3.464v-2h-3.464v2zM20 25c0 .545.146 1.058.402 1.5l1.731-1A.991.991 0 0122 25h-2zm.402-1.5A2.99 2.99 0 0020 25h2a1 1 0 01.133-.5l-1.731-1zm-1.276-.5h-6.252v2h6.252v-2zm-7.22 1.25c.061.238.094.49.094.75h2c0-.43-.055-.849-.158-1.25l-1.937.5zM12 25c0 .26-.033.512-.095.75l1.937.5A5.02 5.02 0 0014 25h-2zm.874 2h6.252v-2h-6.252v2zm7.22-1.25A3.006 3.006 0 0120 25h-2c0 .43.055.849.158 1.25l1.936-.5zM20 25c0-.26.033-.512.095-.75l-1.937-.5c-.104.401-.158.82-.158 1.25h2zm-8.402 1.5A2.99 2.99 0 0012 25h-2a.991.991 0 01-.133.5l1.731 1zm-4.33.5h3.464v-2H7.268v2zM6 25c0 .545.146 1.058.402 1.5l1.731-1A.991.991 0 018 25H6zm.402-1.5A2.99 2.99 0 006 25h2a1 1 0 01.133-.5l-1.731-1zm4.33-.5H7.268v2h3.464v-2zM12 25a2.99 2.99 0 00-.402-1.5l-1.731 1A.991.991 0 0110 25h2z" fill="#ADB5BD"/><path d="M23 28a3 3 0 100-6 3 3 0 000 6zM9 28a3 3 0 100-6 3 3 0 000 6zM20 7h1a8 8 0 018 8v1h-9V7z" stroke="#ADB5BD" stroke-width="2"/></svg>