<svg xmlns="http://www.w3.org/2000/svg" width="28" height="28"><path fill="#d9f3ff" d="M14 1c7.18 0 13 5.82 13 13s-5.82 13-13 13S1 21.18 1 14 6.82 1 14 1zM5 14a9 9 0 1018 0 9 9 0 00-18 0z"/><path fill="none" stroke="#00acff" stroke-linejoin="round" stroke-miterlimit="50" stroke-width="2" d="M14 1c7.18 0 13 5.82 13 13s-5.82 13-13 13S1 21.18 1 14 6.82 1 14 1zM5 14a9 9 0 1018 0 9 9 0 00-18 0z"/><path fill="#fff" d="M5 12h4.172l-2.95-2.95A2 2 0 119.05 6.222L12 9.172V5a2 2 0 114 0v4.172l2.95-2.95a2 2 0 112.828 2.828L18.828 12H23a2 2 0 110 4h-4.172l2.95 2.95a2 2 0 11-2.828 2.828L16 18.828V23a2 2 0 11-4 0v-4.172l-2.95 2.95a2 2 0 11-2.828-2.828L9.172 16H5a2 2 0 110-4z"/><path fill="none" stroke="#0081f0" stroke-miterlimit="50" stroke-width="2" d="M5 12h4.172l-2.95-2.95A2 2 0 119.05 6.222L12 9.172V5a2 2 0 114 0v4.172l2.95-2.95a2 2 0 112.828 2.828L18.828 12H23a2 2 0 110 4h-4.172l2.95 2.95a2 2 0 11-2.828 2.828L16 18.828V23a2 2 0 11-4 0v-4.172l-2.95 2.95a2 2 0 11-2.828-2.828L9.172 16H5a2 2 0 110-4z"/><path fill="#fff" d="M11 14a3 3 0 016 0 3 3 0 01-6 0z"/><path fill="none" stroke="#0081f0" stroke-miterlimit="50" stroke-width="2" d="M11 14a3 3 0 013-3v0a3 3 0 013 3v0a3 3 0 01-3 3v0a3 3 0 01-3-3z"/></svg>