<svg xmlns="http://www.w3.org/2000/svg" width="28" height="28" viewBox="0 0 28 28"><g><g><path fill="#d9f3ff" d="M14 1c7.18 0 13 5.82 13 13s-5.82 13-13 13S1 21.18 1 14 6.82 1 14 1zM5 14a9 9 0 1 0 18 0 9 9 0 0 0-18 0z"/><path fill="none" stroke="#00acff" stroke-linejoin="round" stroke-miterlimit="50" stroke-width="2" d="M14 1c7.18 0 13 5.82 13 13s-5.82 13-13 13S1 21.18 1 14 6.82 1 14 1zM5 14a9 9 0 1 0 18 0 9 9 0 0 0-18 0z"/></g><g><path fill="#fff" d="M5 12h4.172l-2.95-2.95A2 2 0 1 1 9.05 6.222L12 9.172V5a2 2 0 1 1 4 0v4.172l2.95-2.95a2 2 0 1 1 2.828 2.828L18.828 12H23a2 2 0 1 1 0 4h-4.172l2.95 2.95a2 2 0 1 1-2.828 2.828L16 18.828V23a2 2 0 1 1-4 0v-4.172l-2.95 2.95a2 2 0 1 1-2.828-2.828L9.172 16H5a2 2 0 1 1 0-4z"/><path fill="none" stroke="#0081f0" stroke-miterlimit="50" stroke-width="2" d="M5 12h4.172l-2.95-2.95A2 2 0 1 1 9.05 6.222L12 9.172V5a2 2 0 1 1 4 0v4.172l2.95-2.95a2 2 0 1 1 2.828 2.828L18.828 12H23a2 2 0 1 1 0 4h-4.172l2.95 2.95a2 2 0 1 1-2.828 2.828L16 18.828V23a2 2 0 1 1-4 0v-4.172l-2.95 2.95a2 2 0 1 1-2.828-2.828L9.172 16H5a2 2 0 1 1 0-4z"/></g><g><path fill="#fff" d="M11 14a3 3 0 0 1 6 0 3 3 0 0 1-6 0z"/><path fill="none" stroke="#0081f0" stroke-miterlimit="50" stroke-width="2" d="M11 14a3 3 0 0 1 3-3v0a3 3 0 0 1 3 3v0a3 3 0 0 1-3 3v0a3 3 0 0 1-3-3z"/></g></g></svg>