<svg xmlns="http://www.w3.org/2000/svg" width="30" height="28"><path fill="#d9f3ff" d="M2 8h26v17.571c0 .79-.64 1.429-1.429 1.429H3.43C2.639 27 2 26.36 2 25.571z"/><path fill="none" stroke="#00acff" stroke-miterlimit="50" stroke-width="2" d="M2 8v0h26v17.571c0 .79-.64 1.429-1.429 1.429H3.43C2.639 27 2 26.36 2 25.571z"/><path fill="#d9f3ff" d="M3 4h24a2 2 0 110 4h-4.17A3.001 3.001 0 0120 10H10a3.001 3.001 0 01-2.83-2H3a2 2 0 110-4z"/><path fill="none" stroke="#00acff" stroke-miterlimit="50" stroke-width="2" d="M3 4h24a2 2 0 110 4h-4.17A3.001 3.001 0 0120 10H10a3.001 3.001 0 01-2.83-2H3a2 2 0 110-4z"/><path fill="#d9f3ff" d="M10 4a2 2 0 012-2h6a2 2 0 110 4h-6a2 2 0 01-2-2z"/><path fill="none" stroke="#0081f0" stroke-miterlimit="50" stroke-width="2" d="M10 4a2 2 0 012-2h6a2 2 0 012 2v0a2 2 0 01-2 2h-6a2 2 0 01-2-2z"/><path fill="#d9f3ff" d="M3.57 2a1 1 0 011-1h1.571a1 1 0 011 1v1.857H3.57z"/><path fill="none" stroke="#00acff" stroke-miterlimit="50" stroke-width="2" d="M3.57 2a1 1 0 011-1h1.571a1 1 0 011 1v1.857H3.57v0z"/><path fill="#0081f0" d="M7 18a1 1 0 011-1h4a1 1 0 010 2H8a1 1 0 01-1-1zm10 0a1 1 0 011-1h4a1 1 0 010 2h-4a1 1 0 01-1-1z"/><path fill="#0081f0" d="M20 15a1 1 0 011 1v4a1 1 0 01-2 0v-4a1 1 0 011-1z"/><path fill="#d9f3ff" d="M23.57 2a1 1 0 011-1h1.571a1 1 0 011 1v1.857H23.57z"/><path fill="none" stroke="#00acff" stroke-miterlimit="50" stroke-width="2" d="M23.57 2a1 1 0 011-1h1.571a1 1 0 011 1v1.857H23.57v0z"/></svg>