<svg width="32" height="32" fill="none" xmlns="http://www.w3.org/2000/svg"><path d="M22.366 7.62l.705-.708-.705.709zm-12.732 0l.705.71-.705-.71zm12.732 12.641l-.705-.709.705.71zM16 26.59l-.705.71.705.7.705-.7-.705-.71zm-6.366-6.33l.705-.709-.705.71zM8.224 6.203l-.705-.71.705.71zm15.552 0l-.705.709.705-.71zM8.224 21.68l-.705.709.705-.71zm7.071 7.03l-.705.708.705-.709zm.705.7l-.705.71.705.7.705-.7-.705-.71zm.705-.7l.705.708-.705-.709zm7.071-7.03l-.705-.71.705.71zm-.705-14.768c-3.905-3.883-10.237-3.883-14.142 0l1.41 1.418c3.125-3.107 8.197-3.107 11.322 0l1.41-1.418zm0 14.059a9.9 9.9 0 000-14.06l-1.41 1.42a7.9 7.9 0 010 11.221l1.41 1.419zm-6.366 6.328l6.366-6.328-1.41-1.419-6.366 6.329 1.41 1.418zm-7.776-6.328l6.366 6.328 1.41-1.418-6.366-6.329-1.41 1.419zm0-14.06a9.9 9.9 0 000 14.06l1.41-1.419a7.9 7.9 0 010-11.222l-1.41-1.418zm0 0c3.905-3.882 10.237-3.882 14.142 0l1.41-1.418C19.796.836 12.204.836 7.52 5.493l1.41 1.419zm0 14.06a9.9 9.9 0 010-14.06l-1.41-1.418a11.9 11.9 0 000 16.896l1.41-1.418zM16 28l-7.071-7.03-1.41 1.419 7.071 7.03L16 28zm.705.7L16 28l-1.41 1.418.705.701 1.41-1.418zM16 28l-.705.7 1.41 1.42.705-.702L16 28zm7.071-7.03L16 28l1.41 1.418 7.071-7.03-1.41-1.417zm0-14.058a9.9 9.9 0 010 14.059l1.41 1.418a11.9 11.9 0 000-16.896l-1.41 1.419z" fill="#FF5A00"/></svg>