<svg xmlns="http://www.w3.org/2000/svg" width="41" height="48" viewBox="0 0 41 48"><g><g><g><path fill="#0081f0" d="M20.5 48S41 31.876 41 20.535C41 9.194 31.822 0 20.5 0S0 9.194 0 20.535C0 31.875 20.5 48 20.5 48z"/></g></g><g><g><path fill="#fff" d="M21.186 31.472V20.636l4.134-2.009v2.834c0 .32.262.582.582.582.32 0 .581-.262.581-.582V18.06l3.539-1.718v10.835zm-9.981-15.11l8.816 4.274v10.836l-8.816-4.275zm9.399 3.26l-8.657-4.197 4.134-2.004 8.657 4.197zm0-8.394l8.656 4.19-3.188 1.545-8.656-4.19zm10.592 4.192a.603.603 0 0 0-.058-.257.562.562 0 0 0-.393-.31l-9.884-4.795a.586.586 0 0 0-.51 0l-9.981 4.838a.584.584 0 0 0-.33.505v12.164c0 .224.126.427.33.524l9.981 4.838c.005 0 .005 0 .01.005.014.005.029.01.044.02.004 0 .01.004.019.004l.044.015c.004 0 .01.005.014.005.015.005.034.005.049.01h.014c.02 0 .044.004.063.004.02 0 .044 0 .063-.005h.015a.172.172 0 0 0 .049-.01c.004 0 .01-.004.014-.004l.044-.015c.005 0 .01-.005.02-.005.014-.004.028-.01.043-.019.005 0 .005 0 .01-.005l10.01-4.852c.199-.097.33-.3.33-.524V15.435c-.01-.005-.01-.01-.01-.015z"/></g></g></g></svg>