<svg xmlns="http://www.w3.org/2000/svg" width="22" height="28" viewBox="0 0 22 28"><g><g><path fill="#d9f3ff" d="M5 3a2 2 0 0 1 2-2h8a2 2 0 0 1 2 2v2H5z"/><path fill="none" stroke="#00acff" stroke-linejoin="round" stroke-miterlimit="50" stroke-width="2" d="M5 3a2 2 0 0 1 2-2h8a2 2 0 0 1 2 2v2H5v0z"/></g><g><path fill="#d9f3ff" d="M5 25a2 2 0 0 1 2-2h8a2 2 0 1 1 0 4H7a2 2 0 0 1-2-2z"/><path fill="none" stroke="#00acff" stroke-linejoin="round" stroke-miterlimit="50" stroke-width="2" d="M5 25a2 2 0 0 1 2-2h8a2 2 0 0 1 2 2v0a2 2 0 0 1-2 2H7a2 2 0 0 1-2-2z"/></g><g><path fill="#d9f3ff" d="M1 6a2 2 0 0 1 2-2h16a2 2 0 0 1 2 2v16a2 2 0 0 1-2 2H3a2 2 0 0 1-2-2z"/><path fill="none" stroke="#0081f0" stroke-linejoin="round" stroke-miterlimit="50" stroke-width="2" d="M1 6a2 2 0 0 1 2-2h16a2 2 0 0 1 2 2v16a2 2 0 0 1-2 2H3a2 2 0 0 1-2-2z"/></g><g><path fill="#0081f0" d="M4 8a1 1 0 0 1 2 0v12a1 1 0 0 1-2 0z"/></g><g><path fill="#0081f0" d="M8 8a1 1 0 0 1 2 0v12a1 1 0 0 1-2 0z"/></g><g><path fill="#0081f0" d="M12 8a1 1 0 0 1 2 0v12a1 1 0 0 1-2 0z"/></g><g><path fill="#0081f0" d="M16 8a1 1 0 0 1 2 0v12a1 1 0 0 1-2 0z"/></g></g></svg>