<svg width="24" height="24" viewBox="0 0 24 24" fill="none" xmlns="http://www.w3.org/2000/svg">
<rect x="4" y="4" width="12" height="2" fill="#0081F0"/>
<rect x="8" y="18" width="12" height="2" fill="#0081F0"/>
<rect x="14" y="11" width="6" height="2" fill="#0081F0"/>
<rect x="4" y="11" width="6" height="2" fill="#0081F0"/>
<path fill-rule="evenodd" clip-rule="evenodd" d="M17 7C18.1046 7 19 6.10457 19 5C19 3.89543 18.1046 3 17 3C15.8954 3 15 3.89543 15 5C15 6.10457 15.8954 7 17 7Z" stroke="#0081F0" stroke-width="2"/>
<path fill-rule="evenodd" clip-rule="evenodd" d="M7 21C8.10457 21 9 20.1046 9 19C9 17.8954 8.10457 17 7 17C5.89543 17 5 17.8954 5 19C5 20.1046 5.89543 21 7 21Z" stroke="#0081F0" stroke-width="2"/>
<path fill-rule="evenodd" clip-rule="evenodd" d="M12 14C13.1046 14 14 13.1046 14 12C14 10.8954 13.1046 10 12 10C10.8954 10 10 10.8954 10 12C10 13.1046 10.8954 14 12 14Z" stroke="#0081F0" stroke-width="2"/>
</svg>
