<svg xmlns="http://www.w3.org/2000/svg" width="21" height="27" viewBox="0 0 21 27"><g><g><path fill="#d9f3ff" d="M1 3a2 2 0 0 1 2-2h2a2 2 0 0 1 2 2v2H1z"/><path fill="none" stroke="#0081f0" stroke-miterlimit="50" stroke-width="2" d="M1 3a2 2 0 0 1 2-2h2a2 2 0 0 1 2 2v2H1v0z"/></g><g><path fill="none" stroke="#00acff" stroke-linejoin="round" stroke-miterlimit="50" stroke-width="2" d="M10 5v0h6a4 4 0 0 1 4 4v7"/></g><g><path fill="#d9f3ff" d="M1 5h9l10 10v9a2 2 0 0 1-2 2H3a2 2 0 0 1-2-2z"/><path fill="none" stroke="#00acff" stroke-miterlimit="50" stroke-width="2" d="M1 5v0h9v0l10 10v9a2 2 0 0 1-2 2H3a2 2 0 0 1-2-2z"/></g><g transform="rotate(-315 10.5 16.5)"><path fill="#d9f3ff" d="M7.24 14.24h3a3 3 0 0 1 0 6 3 3 0 0 1-3-3z"/><path fill="none" stroke="#0081f0" stroke-miterlimit="50" stroke-width="2" d="M7.24 14.24v0h3a3 3 0 0 1 3 3v0a3 3 0 0 1-3 3v0a3 3 0 0 1-3-3z"/></g></g></svg>