<svg xmlns="http://www.w3.org/2000/svg" width="21" height="27"><path fill="#d9f3ff" d="M1 3a2 2 0 012-2h2a2 2 0 012 2v2H1z"/><path fill="none" stroke="#0081f0" stroke-miterlimit="50" stroke-width="2" d="M1 3a2 2 0 012-2h2a2 2 0 012 2v2H1v0z"/><path fill="none" stroke="#00acff" stroke-linejoin="round" stroke-miterlimit="50" stroke-width="2" d="M10 5v0h6a4 4 0 014 4v7"/><path fill="#d9f3ff" d="M1 5h9l10 10v9a2 2 0 01-2 2H3a2 2 0 01-2-2z"/><path fill="none" stroke="#00acff" stroke-miterlimit="50" stroke-width="2" d="M1 5v0h9v0l10 10v9a2 2 0 01-2 2H3a2 2 0 01-2-2z"/><path fill="#d9f3ff" d="M9.793 12.597l2.121 2.121a3 3 0 01-4.242 4.243 3 3 0 010-4.243z"/><path fill="none" stroke="#0081f0" stroke-miterlimit="50" stroke-width="2" d="M9.793 12.597h0l2.121 2.121a3 3 0 010 4.243h0a3 3 0 01-4.242 0h0a3 3 0 010-4.243z"/></svg>