<svg xmlns="http://www.w3.org/2000/svg" width="41" height="48"><path fill="#0081f0" d="M20.5 48S41 31.876 41 20.535C41 9.194 31.822 0 20.5 0S0 9.194 0 20.535C0 31.875 20.5 48 20.5 48z"/><path fill="#fff" d="M29.828 28.2c0 .33-.263.6-.586.6H12.758a.594.594 0 01-.586-.6v-9.503l.935 2.872a1.76 1.76 0 001.667 1.231h3.296v.6c0 .331.263.6.586.6h4.688a.593.593 0 00.586-.6v-.6h3.296a1.76 1.76 0 001.667-1.23l.935-2.873zm-7.07-6.6v1.2h-3.516v-1.2zm6.843-6l-1.82 5.59a.586.586 0 01-.555.41H23.93V21c0-.331-.263-.6-.586-.6h-4.688a.593.593 0 00-.586.6v.6h-3.296a.586.586 0 01-.555-.41l-1.82-5.59zm-11.53-1.8c0-.33.262-.6.585-.6h4.688c.323 0 .586.27.586.6v.6h-5.86zm12.347.6h-5.316v-.6c0-.993-.789-1.8-1.758-1.8h-4.688c-.969 0-1.758.807-1.758 1.8v.6h-5.312A.595.595 0 0011 15v13.2c0 .993.789 1.8 1.758 1.8h16.484c.97 0 1.758-.807 1.758-1.8V15.01c-.022-.394-.26-.608-.582-.61z"/></svg>