<svg xmlns="http://www.w3.org/2000/svg" width="32" height="32" viewBox="0 0 32 32"><defs><linearGradient id="92fab" x1="4.67" x2="27.23" y1="4.85" y2="27.26" gradientUnits="userSpaceOnUse"><stop offset="0" stop-color="#00afe4"/><stop offset="1" stop-color="#0093d4"/></linearGradient><clipPath id="92faa"><path d="M15.949.21C7.14.21 0 7.304 0 16.054 0 24.805 7.14 31.9 15.949 31.9c8.808 0 15.948-7.094 15.948-15.845C31.897 7.304 24.757.21 15.95.21z"/></clipPath></defs><g><g><g><g><g/><g clip-path="url(#92faa)"><path fill="url(#92fab)" d="M15.949.21C7.14.21 0 7.304 0 16.054 0 24.805 7.14 31.9 15.949 31.9c8.808 0 15.948-7.094 15.948-15.845C31.897 7.304 24.757.21 15.95.21z"/></g></g><g><g><path fill="#c2daec" d="M10.67 17.323l1.835 4.944 8.144-11.237z"/></g><g><path fill="#9fcde2" d="M12.706 18.42l-.176 3.896 4.298-3.621z"/></g><g><path fill="#ecf8fd" d="M22.635 9.134l-16.052 6.06a.512.512 0 0 0 .019.966l4.139 1.39 9.426-6.043-7.465 6.917 5.811 4.382a1.06 1.06 0 0 0 1.666-.583L23.32 9.74a.516.516 0 0 0-.685-.605"/></g></g></g></g></g></svg>