<svg xmlns="http://www.w3.org/2000/svg" width="32" height="32"><defs><clipPath id="a"><path d="M0 .29h31.903v31.615H0z"/></clipPath></defs><g clip-path="url(#a)"><path fill="#7b519d" d="M0 16.098C0 7.368 7.142.29 15.951.29c8.81 0 15.952 7.077 15.952 15.808 0 8.73-7.142 15.807-15.952 15.807C7.141 31.905 0 24.828 0 16.098"/></g><path fill="#f1f2f2" d="M22.945 19.713c-.514-.41-1.064-.78-1.605-1.155-1.08-.751-2.066-.81-2.871.399-.452.678-1.085.708-1.748.41-1.824-.82-3.233-2.083-4.059-3.921-.364-.813-.36-1.542.495-2.117.452-.305.908-.664.871-1.33-.047-.866-2.17-3.762-3.01-4.067a1.537 1.537 0 00-1.045 0c-1.966.654-2.78 2.257-2 4.154 2.326 5.66 6.42 9.6 12.057 12.006.321.137.678.191.859.24 1.283.013 2.786-1.212 3.22-2.428.418-1.17-.465-1.634-1.164-2.191M16.627 8.296c4.12.628 6.02 2.57 6.545 6.682.048.38-.094.951.453.962.571.01.434-.552.438-.933.049-3.873-3.36-7.464-7.317-7.596-.299.043-.916-.204-.955.459-.026.447.494.374.836.426"/><path fill="#f1f2f2" d="M17.433 9.419c-.397-.048-.92-.233-1.012.312-.097.572.486.514.86.597 2.546.564 3.431 1.482 3.85 3.983.062.365-.06.933.566.838.463-.07.296-.556.335-.84.02-2.402-2.057-4.588-4.6-4.89"/><path fill="#f1f2f2" d="M17.669 11.38c-.265.007-.524.035-.621.316-.147.418.16.518.473.568 1.044.166 1.593.776 1.698 1.807.028.28.207.507.48.475.378-.044.413-.378.401-.695.019-1.159-1.303-2.498-2.431-2.47"/></svg>