<svg xmlns="http://www.w3.org/2000/svg" width="32" height="32"><defs><clipPath id="a"><path d="M0 .29h31.903v31.615H0z"/></clipPath></defs><g clip-path="url(#a)"><path fill="#30bf39" d="M0 16.098C0 7.368 7.142.29 15.951.29c8.81 0 15.952 7.077 15.952 15.808 0 8.73-7.142 15.807-15.952 15.807C7.141 31.905 0 24.828 0 16.098"/></g><path fill="#f1f2f2" d="M20.774 17.55c-.218-.118-1.29-.692-1.49-.773-.2-.08-.348-.123-.505.092-.155.215-.6.695-.735.837-.135.143-.265.157-.484.038-.217-.119-.925-.378-1.745-1.16-.638-.609-1.056-1.347-1.178-1.572-.122-.226 0-.34.115-.446.103-.096.232-.25.348-.374.115-.125.156-.215.235-.36.08-.144.048-.274-.004-.386-.051-.112-.454-1.213-.622-1.662-.17-.447-.357-.38-.486-.386-.13-.004-.277-.028-.425-.034a.82.82 0 00-.603.254c-.212.213-.806.724-.847 1.809-.041 1.084.715 2.162.82 2.312.106.152 1.445 2.503 3.669 3.469 2.225.967 2.237.672 2.645.65.409-.021 1.334-.484 1.54-.992.204-.507.22-.949.169-1.042-.053-.094-.199-.155-.417-.273m-4.08 5.212a7.245 7.245 0 01-3.985-1.187l-2.784.883.905-2.666a7.096 7.096 0 01-1.38-4.21c0-3.958 3.25-7.179 7.244-7.179 3.995 0 7.245 3.22 7.245 7.18 0 3.958-3.25 7.18-7.245 7.18m0-15.804c-4.806 0-8.702 3.861-8.702 8.624a8.52 8.52 0 001.249 4.453L7.67 24.664l4.818-1.529a8.732 8.732 0 004.206 1.073c4.807 0 8.703-3.861 8.703-8.624S21.5 6.96 16.694 6.96"/></svg>