<svg xmlns="http://www.w3.org/2000/svg" width="22" height="31"><path fill="#d9f3ff" d="M5 7a6 6 0 1112 0v11H5z"/><path fill="none" stroke="#0081f0" stroke-miterlimit="50" stroke-width="2" d="M5 7a6 6 0 016-6v0a6 6 0 016 6v11H5v0z"/><path fill="#d9f3ff" d="M1 19h20v4.571c0 .79-.64 1.429-1.429 1.429H2.43C1.639 25 1 24.36 1 23.571z"/><path fill="none" stroke="#00acff" stroke-miterlimit="50" stroke-width="2" d="M1 19v0h20v4.571c0 .79-.64 1.429-1.429 1.429H2.43C1.639 25 1 24.36 1 23.571z"/><path fill="#d9f3ff" d="M3 19h16v-2a1 1 0 00-1-1H4a1 1 0 00-1 1z"/><path fill="none" stroke="#00acff" stroke-miterlimit="50" stroke-width="2" d="M3 19v0h16v0-2a1 1 0 00-1-1H4a1 1 0 00-1 1z"/><path fill="#d9f3ff" d="M8 25h6v3.571c0 .79-.64 1.429-1.429 1.429H9.43C8.639 30 8 29.36 8 28.571z"/><path fill="none" stroke="#00acff" stroke-miterlimit="50" stroke-width="2" d="M8 25v0h6v3.571c0 .79-.64 1.429-1.429 1.429H9.43C8.639 30 8 29.36 8 28.571z"/><path fill="#0081f0" d="M10 6h2v9h-2zM4 26h2v2H4zm12 0h2v2h-2z"/></svg>