<svg width="48" height="48" fill="none" xmlns="http://www.w3.org/2000/svg"><path d="M6 6h1.53a4 4 0 013.96 3.434L12 13" stroke="#00ACFF" stroke-width="2" stroke-linecap="round"/><path d="M12 13h30.746a2 2 0 011.985 2.238l-2.52 21A2 2 0 0140.226 38H16.774a2 2 0 01-1.985-1.762L12 13z" fill="#D9F3FF" stroke="#0081F0" stroke-width="2"/><path d="M21 41a3 3 0 100-6 3 3 0 000 6zM6 8a2 2 0 100-4 2 2 0 000 4zM37 41a3 3 0 100-6 3 3 0 000 6z" fill="#D9F3FF" stroke="#00ACFF" stroke-width="2"/><path d="M28 31a6 6 0 100-12 6 6 0 000 12z" fill="#D9F3FF" stroke="#0081F0" stroke-width="2"/></svg>