<svg width="48" height="48" fill="none" xmlns="http://www.w3.org/2000/svg"><path d="M38 39v5H5V4h24v9h9v14" fill="#D9F3FF"/><path d="M38 39v5H5V4h24v9h9v14" stroke="#00ACFF" stroke-width="2"/><path d="M30.25 4L38 11.75V13h-9V4h1.25z" fill="#D9F3FF" stroke="#00ACFF" stroke-width="2"/><path fill="#0081F0" d="M9 9h16v5H9z"/><path fill="#00ACFF" d="M9 20h14v2H9zM9 26h14v2H9zM9 32h14v2H9zM9 38h14v2H9zM28 20h5v2h-5zM28 26h5v2h-5zM28 38h5v2h-5z"/><path d="M31 32l4 4 10-10" stroke="#0081F0" stroke-width="2"/></svg>