<svg width="48" height="48" fill="none" xmlns="http://www.w3.org/2000/svg"><path d="M24 45c11.598 0 21-9.402 21-21S35.598 3 24 3 3 12.402 3 24s9.402 21 21 21z" fill="#D9F3FF" stroke="#00ACFF" stroke-width="2"/><mask id="a" maskUnits="userSpaceOnUse" x="2" y="2" width="44" height="44"><path d="M24 45c11.598 0 21-9.402 21-21S35.598 3 24 3 3 12.402 3 24s9.402 21 21 21z" fill="#fff" stroke="#fff" stroke-width="2"/></mask><g mask="url(#a)"><path d="M24 29c4 0 7-4.582 7-9s-2.49-8-7-8-7 3.582-7 8 3 9 7 9z" fill="#D9F3FF" stroke="#0081F0" stroke-width="2"/><path d="M20 27v5l-7.15 2.145A4 4 0 0010 37.976V42" fill="#D9F3FF"/><path d="M20 27v5l-7.15 2.145A4 4 0 0010 37.976V42" stroke="#0081F0" stroke-width="2"/><path d="M28 27v5l7.15 2.145A4 4 0 0138 37.976V42" fill="#D9F3FF"/><path d="M28 27v5l7.15 2.145A4 4 0 0138 37.976V42" stroke="#0081F0" stroke-width="2"/><path d="M20 32l4 2 4-2" fill="#D9F3FF"/><path d="M20 32l4 2 4-2" stroke="#0081F0" stroke-width="2"/><path d="M23 34l-2 8 3 4 3-4-2-8h-2z" fill="#D9F3FF" stroke="#0081F0" stroke-width="2"/></g></svg>