<svg xmlns="http://www.w3.org/2000/svg" width="23" height="20"><g clip-path="url(#clip-570486E5-E561-4F81-B5BE-36D8297816B6)"><path fill="#0081f0" d="M21.652 18a.671.671 0 01-.673.667H2.02A.671.671 0 011.348 18V7.441l1.075 3.191A2.017 2.017 0 004.34 12h3.79v.667a.67.67 0 00.675.666h5.39a.67.67 0 00.674-.666V12h3.79c.872 0 1.643-.55 1.918-1.368l1.075-3.19zm-8.13-7.333V12H9.478v-1.333zM21.391 4l-2.093 6.21a.672.672 0 01-.64.457h-3.79V10a.67.67 0 00-.674-.667h-5.39A.67.67 0 008.13 10v.667H4.34a.672.672 0 01-.64-.456L1.61 4zM8.13 2.005c0-.37.302-.672.674-.672h5.39c.372 0 .674.302.674.672v.672H8.131zm14.2.662h-6.115V2c0-1.103-.906-2-2.02-2H8.804a2.013 2.013 0 00-2.022 2v.667H.673A.672.672 0 000 3.333V18c0 1.103.907 2 2.021 2H20.98A2.013 2.013 0 0023 18V3.345c-.026-.438-.298-.676-.67-.678z"/></g></svg>