<svg xmlns="http://www.w3.org/2000/svg" width="24" height="29" viewBox="0 0 24 29"><g><g transform="rotate(-90 12 12)"><path fill="#d9f3ff" d="M1 9a2 2 0 0 1 2-2h18a2 2 0 0 1 2 2v6a2 2 0 0 1-2 2H3a2 2 0 0 1-2-2z"/><path fill="none" stroke="#00acff" stroke-linejoin="round" stroke-miterlimit="50" stroke-width="2" d="M1 9a2 2 0 0 1 2-2h18a2 2 0 0 1 2 2v6a2 2 0 0 1-2 2H3a2 2 0 0 1-2-2z"/></g><g transform="rotate(-90 12 12)"><g><path fill="#d9f3ff" d="M20 11l-2-1-2 1-2-1-2 1-2-1-2 1-2-1-2 1"/><path fill="none" stroke="#0081f0" stroke-miterlimit="50" stroke-width="2" d="M20 11v0l-2-1v0l-2 1v0l-2-1v0l-2 1v0l-2-1v0l-2 1v0l-2-1v0l-2 1v0"/></g><g><path fill="#d9f3ff" d="M20 14l-2-1-2 1-2-1-2 1-2-1-2 1-2-1-2 1"/><path fill="none" stroke="#0081f0" stroke-miterlimit="50" stroke-width="2" d="M20 14v0l-2-1v0l-2 1v0l-2-1v0l-2 1v0l-2-1v0l-2 1v0l-2-1v0l-2 1v0"/></g></g><g><path fill="#d9f3ff" d="M1 20a2 2 0 0 1 2-2h18a2 2 0 0 1 2 2v6a2 2 0 0 1-2 2H3a2 2 0 0 1-2-2z"/><path fill="none" stroke="#00acff" stroke-linejoin="round" stroke-miterlimit="50" stroke-width="2" d="M1 20a2 2 0 0 1 2-2h18a2 2 0 0 1 2 2v6a2 2 0 0 1-2 2H3a2 2 0 0 1-2-2z"/></g><g><g><path fill="#d9f3ff" d="M20 22l-2-1-2 1-2-1-2 1-2-1-2 1-2-1-2 1"/><path fill="none" stroke="#0081f0" stroke-miterlimit="50" stroke-width="2" d="M20 22v0l-2-1v0l-2 1v0l-2-1v0l-2 1v0l-2-1v0l-2 1v0l-2-1v0l-2 1v0"/></g><g><path fill="#d9f3ff" d="M20 25l-2-1-2 1-2-1-2 1-2-1-2 1-2-1-2 1"/><path fill="none" stroke="#0081f0" stroke-miterlimit="50" stroke-width="2" d="M20 25v0l-2-1v0l-2 1v0l-2-1v0l-2 1v0l-2-1v0l-2 1v0l-2-1v0l-2 1v0"/></g></g></g></svg>