<svg xmlns="http://www.w3.org/2000/svg" width="24" height="29"><path fill="#d9f3ff" d="M9 23a2 2 0 01-2-2V3a2 2 0 012-2h6a2 2 0 012 2v18a2 2 0 01-2 2z"/><path fill="none" stroke="#00acff" stroke-linejoin="round" stroke-miterlimit="50" stroke-width="2" d="M9 23a2 2 0 01-2-2V3a2 2 0 012-2h6a2 2 0 012 2v18a2 2 0 01-2 2z"/><path fill="#d9f3ff" d="M11 4l-1 2 1 2-1 2 1 2-1 2 1 2-1 2 1 2"/><path fill="none" stroke="#0081f0" stroke-miterlimit="50" stroke-width="2" d="M11 4h0l-1 2h0l1 2h0l-1 2h0l1 2h0l-1 2h0l1 2h0l-1 2h0l1 2h0"/><path fill="#d9f3ff" d="M14 4l-1 2 1 2-1 2 1 2-1 2 1 2-1 2 1 2"/><path fill="none" stroke="#0081f0" stroke-miterlimit="50" stroke-width="2" d="M14 4h0l-1 2h0l1 2h0l-1 2h0l1 2h0l-1 2h0l1 2h0l-1 2h0l1 2h0"/><path fill="#d9f3ff" d="M1 20a2 2 0 012-2h18a2 2 0 012 2v6a2 2 0 01-2 2H3a2 2 0 01-2-2z"/><path fill="none" stroke="#00acff" stroke-linejoin="round" stroke-miterlimit="50" stroke-width="2" d="M1 20a2 2 0 012-2h18a2 2 0 012 2v6a2 2 0 01-2 2H3a2 2 0 01-2-2z"/><path fill="#d9f3ff" d="M20 22l-2-1-2 1-2-1-2 1-2-1-2 1-2-1-2 1"/><path fill="none" stroke="#0081f0" stroke-miterlimit="50" stroke-width="2" d="M20 22v0l-2-1v0l-2 1v0l-2-1v0l-2 1v0l-2-1v0l-2 1v0l-2-1v0l-2 1v0"/><path fill="#d9f3ff" d="M20 25l-2-1-2 1-2-1-2 1-2-1-2 1-2-1-2 1"/><path fill="none" stroke="#0081f0" stroke-miterlimit="50" stroke-width="2" d="M20 25v0l-2-1v0l-2 1v0l-2-1v0l-2 1v0l-2-1v0l-2 1v0l-2-1v0l-2 1v0"/></svg>