<svg width="41" height="41" viewBox="0 0 41 41" fill="none" xmlns="http://www.w3.org/2000/svg">
<path fill-rule="evenodd" clip-rule="evenodd" d="M20.5003 0C9.17813 0 0 9.17813 0 20.5C0 31.8219 9.17813 41 20.5003 41C31.8219 41 41 31.8219 41 20.5C41 9.17813 31.8219 0 20.5003 0Z" fill="#FF5A00"/>
<path fill-rule="evenodd" clip-rule="evenodd" d="M33.3125 15.6562H34.3125V16.6562V30.75V31.75H33.3125H30.4688V33.3125V35.3125L28.8688 34.1125L25.7188 31.75H14.0938H13.0938V30.75V16.6562V15.6562H14.0938H33.3125ZM23.0521 29.75H15.0938V17.6562H32.3125V29.75H30.4688V25.625V24.625H29.4688H19.2188H16.2188L18.6187 26.425L23.0521 29.75ZM26.3854 29.75H28.4688V26.625H22.2188L26.3854 29.75Z" fill="#CC4800"/>
<path d="M7.96875 10.5312V9.53125H6.96875V10.5312H7.96875ZM7.96875 27.9062H6.96875V28.9062H7.96875V27.9062ZM11.8125 27.9062H12.8125V26.9062H11.8125V27.9062ZM11.8125 33.1642H10.8125V35.5784L12.5196 33.8713L11.8125 33.1642ZM13.5196 31.4571L14.2267 32.1642L14.2267 32.1642L13.5196 31.4571ZM17.0705 27.9062V26.9062H16.6563L16.3634 27.1991L17.0705 27.9062ZM30.4688 27.9062V28.9062H31.4688V27.9062H30.4688ZM30.4688 10.5312H31.4688V9.53125H30.4688V10.5312ZM19.0705 25.9062L18.3634 25.1991L16.6563 26.9062H19.0705V25.9062ZM28.4688 25.9062V26.9062H29.4688V25.9062H28.4688ZM28.4688 12.5312H29.4688V11.5312H28.4688V12.5312ZM9.96875 12.5312V11.5312H8.96875V12.5312H9.96875ZM9.96875 25.9062H8.96875V26.9062H9.96875V25.9062ZM11.8125 25.9062V26.9062H12.8125V25.9062H11.8125ZM11.8125 18.2188V17.2188H10.8125V18.2188H11.8125ZM26.758 18.2188L27.4651 18.9259L29.1722 17.2188H26.758V18.2188ZM25.0509 19.9259L25.758 20.633L25.758 20.633L25.0509 19.9259ZM13.8125 25.9062H12.8125V26.9062H13.8125V25.9062ZM13.8125 20.2188V19.2188H12.8125V20.2188H13.8125ZM21.9295 20.2188L22.6366 20.9259L24.3438 19.2188H21.9295V20.2188ZM16.242 25.9062V26.9062H16.6563L16.9491 26.6134L16.242 25.9062ZM14.242 27.9062L14.9491 28.6134L16.6563 26.9062H14.242V27.9062ZM13.8125 27.9062V26.9062H12.8125V27.9062H13.8125ZM13.8125 28.3358H12.8125V30.75L14.5196 29.0429L13.8125 28.3358ZM7.96875 11.5312H8.96875V9.53125H7.96875V11.5312ZM8.96875 11.5312V10.5312H6.96875V11.5312H8.96875ZM8.96875 26.9062V11.5312H6.96875V26.9062H8.96875ZM8.96875 27.9062V26.9062H6.96875V27.9062H8.96875ZM8.96875 26.9062H7.96875V28.9062H8.96875V26.9062ZM11.8125 26.9062H8.96875V28.9062H11.8125V26.9062ZM10.8125 27.9062V30.75H12.8125V27.9062H10.8125ZM10.8125 30.75V33.1642H12.8125V30.75H10.8125ZM12.5196 33.8713L14.2267 32.1642L12.8125 30.75L11.1054 32.4571L12.5196 33.8713ZM14.2267 32.1642L17.7776 28.6134L16.3634 27.1991L12.8125 30.75L14.2267 32.1642ZM29.4688 26.9062H17.0705V28.9062H29.4688V26.9062ZM30.4688 26.9062H29.4688V28.9062H30.4688V26.9062ZM29.4688 26.9062V27.9062H31.4688V26.9062H29.4688ZM29.4688 11.5312V26.9062H31.4688V11.5312H29.4688ZM29.4688 10.5312V11.5312H31.4688V10.5312H29.4688ZM29.4688 11.5312H30.4688V9.53125H29.4688V11.5312ZM8.96875 11.5312H29.4688V9.53125H8.96875V11.5312ZM19.0705 26.9062H28.4688V24.9062H19.0705V26.9062ZM29.4688 25.9062V12.5312H27.4688V25.9062H29.4688ZM28.4688 11.5312H9.96875V13.5312H28.4688V11.5312ZM8.96875 12.5312V25.9062H10.9688V12.5312H8.96875ZM9.96875 26.9062H11.8125V24.9062H9.96875V26.9062ZM10.8125 19.2188V25.9062H12.8125V19.2188H10.8125ZM10.8125 18.2188V19.2188H12.8125V18.2188H10.8125ZM12.8125 17.2188H11.8125V19.2188H12.8125V17.2188ZM24.3438 17.2188H12.8125V19.2188H24.3438V17.2188ZM26.758 17.2188H24.3438V19.2188H26.758V17.2188ZM25.758 20.633L27.4651 18.9259L26.0509 17.5116L24.3438 19.2188L25.758 20.633ZM19.7776 26.6134L25.758 20.633L24.3438 19.2187L18.3634 25.1991L19.7776 26.6134ZM14.8125 25.9062V20.2188H12.8125V25.9062H14.8125ZM13.8125 21.2188H21.9295V19.2188H13.8125V21.2188ZM21.2224 19.5116L15.5349 25.1991L16.9491 26.6134L22.6366 20.9259L21.2224 19.5116ZM13.8125 26.9062H16.242V24.9062H13.8125V26.9062ZM14.242 26.9062H13.8125V28.9062H14.242V26.9062ZM13.5349 27.1991L13.1054 27.6287L14.5196 29.0429L14.9491 28.6134L13.5349 27.1991ZM14.8125 28.3358V27.9062H12.8125V28.3358H14.8125Z" fill="white"/>
<rect x="12.8125" y="15.375" width="12.8125" height="2.5625" fill="white"/>
<rect x="12.8125" y="20.5" width="12.8125" height="2.5625" fill="white"/>
</svg>
